HIERARCHY
ROOT root
{
	OFFSET	0	13.1	24.9
	CHANNELS 6  Xposition Yposition Zposition Xrotation Yrotation Zrotation
	JOINT spine_1
	{
		OFFSET	0	9.99999	0
		CHANNELS 3  Xrotation Yrotation Zrotation
		JOINT spine_2
		{
			OFFSET	0	112	-10
			CHANNELS 3  Xrotation Yrotation Zrotation
			JOINT spine_3
			{
				OFFSET	0	206.5	19.3
				CHANNELS 3  Xrotation Yrotation Zrotation
				JOINT spine_4
				{
					OFFSET	0	110.4	14.6
					CHANNELS 3  Xrotation Yrotation Zrotation
					JOINT neck_1
					{
						OFFSET	0	71.8	-50.3
						CHANNELS 3  Xrotation Yrotation Zrotation
						JOINT neck_2
						{
							OFFSET	0	86.2	-25.8
							CHANNELS 3  Xrotation Yrotation Zrotation
							JOINT head_ee
							{
								OFFSET	0	179.8	-8.7
								CHANNELS 3  Xrotation Yrotation Zrotation
								End Site
								{
									OFFSET	1	0	0
								}
							}
						}
					}
					JOINT left_clavicle
					{
						OFFSET	-43.2	22.4	-70.8
						CHANNELS 3  Xrotation Yrotation Zrotation
						JOINT left_shoulder
						{
							OFFSET	-93.9	-5.79999	48.7
							CHANNELS 3  Xrotation Yrotation Zrotation
							JOINT left_elbow
							{
								OFFSET	-291.4	-30.8	15.2
								CHANNELS 3  Xrotation Yrotation Zrotation
								JOINT left_lowarm_twist
								{
									OFFSET	-110.7	-3.89999	13.6
									CHANNELS 3  Xrotation Yrotation Zrotation
									JOINT left_hand
									{
										OFFSET	-110.7	-3.89999	13.6
										CHANNELS 3  Xrotation Yrotation Zrotation
										JOINT left_ee
										{
											OFFSET	-80.8	-5.10001	12.1
											CHANNELS 3  Xrotation Yrotation Zrotation
											End Site
											{
												OFFSET	1	0	0
											}
										}
									}
								}
							}
						}
					}
					JOINT right_clavicle
					{
						OFFSET	43.2	22.4	-70.8
						CHANNELS 3  Xrotation Yrotation Zrotation
						JOINT right_shoulder
						{
							OFFSET	93.9	-5.79999	48.7
							CHANNELS 3  Xrotation Yrotation Zrotation
							JOINT right_elbow
							{
								OFFSET	291.4	-30.8	15.2
								CHANNELS 3  Xrotation Yrotation Zrotation
								JOINT right_lowarm_twist
								{
									OFFSET	110.7	-3.89999	13.6
									CHANNELS 3  Xrotation Yrotation Zrotation
									JOINT right_hand
									{
										OFFSET	110.7	-3.89999	13.6
										CHANNELS 3  Xrotation Yrotation Zrotation
										JOINT right_ee
										{
											OFFSET	80.8	-5.10001	12.1
											CHANNELS 3  Xrotation Yrotation Zrotation
											End Site
											{
												OFFSET	1	0	0
											}
										}
									}
								}
							}
						}
					}
				}
			}
		}
	}
	JOINT left_hip
	{
		OFFSET	-82.8	-127.5	0.300001
		CHANNELS 3  Xrotation Yrotation Zrotation
		JOINT left_knee
		{
			OFFSET	-28.2	-396.7	2.2
			CHANNELS 3  Xrotation Yrotation Zrotation
			JOINT left_ankle
			{
				OFFSET	-11.7	-411.3	35.4
				CHANNELS 3  Xrotation Yrotation Zrotation
				JOINT left_toes
				{
					OFFSET	0	-60	-88.6
					CHANNELS 3  Xrotation Yrotation Zrotation
					JOINT left_foot_ee
					{
						OFFSET	-22.5	-16.5	-42.2
						CHANNELS 3  Xrotation Yrotation Zrotation
						End Site
						{
							OFFSET	1	0	0
						}
					}
				}
			}
		}
	}
	JOINT right_hip
	{
		OFFSET	82.8	-127.5	0.300001
		CHANNELS 3  Xrotation Yrotation Zrotation
		JOINT right_knee
		{
			OFFSET	28.2	-396.7	2.2
			CHANNELS 3  Xrotation Yrotation Zrotation
			JOINT right_ankle
			{
				OFFSET	11.7	-411.3	35.4
				CHANNELS 3  Xrotation Yrotation Zrotation
				JOINT right_toes
				{
					OFFSET	0	-60	-88.6
					CHANNELS 3  Xrotation Yrotation Zrotation
					JOINT right_foot_ee
					{
						OFFSET	22.5	-16.5	-42.2
						CHANNELS 3  Xrotation Yrotation Zrotation
						End Site
						{
							OFFSET	1	0	0
						}
					}
				}
			}
		}
	}
}
MOTION
Frames: 6
Frame Time: 0.02
3454.47540918 713.425 -1523.86045526 -6.56793101425 49.7283068456 -0.937127040798 3.30198 1.07374 2.22841 3.30427 0.929799 2.29218 3.34076 0.569134 2.40716 3.33391 0.942059 2.28717 -8.62472 13.4801 0.943292 -8.73642 24.6044 4.0568 -0.0 0.0 -0.0 -6.75172 24.3331 -6.34543 -15.2128 -16.3518 68.2568 2.05328 -45.4814 0.860697 -53.5358 -4.49154 4.85493 -1.5935 8.14576 -6.94018 -0.0 0.0 -0.0 13.7229 17.3417 -28.1018 -2.49222 2.9958 -67.9231 0.306942 8.6458 -0.0232025 3.71644 -0.116038 0.460435 -4.77004 -25.2498 17.1393 0.0 0.0 0.0 7.57673 21.0937 -2.7855 -26.1121 0.173241 3.96886 40.0792 0.868812 -4.87694 -25.7821 0.0 0.0 -0.0 0.0 -0.0 1.62476 14.1073 4.72252 -24.5348 -0.214316 -3.73029 39.2821 11.6358 5.00419 -12.6768 0.0 0.0 0.0 0.0 0.0 
3444.14241541 712.734 -1526.43809078 -6.0009941621 52.9496880334 -1.04497380123 3.27748 1.03293 2.25358 3.27987 0.887474 2.3147 3.31499 0.522742 2.4232 3.30793 0.898781 2.31033 -9.29498 14.0867 1.20794 -9.46711 25.6477 4.61871 -0.0 0.0 -0.0 -6.86983 24.1888 -6.55568 -18.7005 -16.1809 68.4211 1.92472 -43.6302 0.770482 -53.0496 -4.43322 4.83282 -1.62696 7.63864 -7.39521 -0.0 0.0 -0.0 13.5022 17.9183 -27.552 -0.246825 3.97024 -70.2558 0.404224 11.3234 -0.0400743 3.91165 -0.121304 0.484815 -4.61319 -23.9445 17.1064 0.0 0.0 0.0 9.41412 18.8405 -3.99274 -31.3101 -0.0083387 4.74566 39.8604 1.09679 -4.85677 -23.4662 0.0 0.0 -0.0 0.0 -0.0 0.589415 11.5701 4.87766 -25.392 -0.192809 -3.86007 38.4121 15.9743 5.05496 -12.2283 0.0 0.0 0.0 0.0 0.0 
3430.25428153 708.456 -1522.87769794 -6.81848947746 57.7316568784 0.047629975756 3.49793 0.944148 2.15989 3.50016 0.80483 2.21556 3.53042 0.464858 2.31087 3.52391 0.823896 2.20854 -9.36806 14.9955 1.02427 -9.57697 27.4951 4.69598 -0.0 0.0 -0.0 -6.93152 24.0364 -6.69086 -20.7785 -14.6401 69.1841 1.7909 -41.5743 0.679886 -52.6705 -4.38787 4.81523 -1.39827 6.82646 -6.2729 -0.0 0.0 -0.0 13.5659 21.4654 -27.455 1.58845 4.66386 -72.0371 0.48615 13.5406 -0.0577144 4.89428 -0.146549 0.607796 -3.77897 -20.5716 14.2162 0.0 0.0 0.0 12.8393 13.5782 -4.95354 -35.1853 -0.189205 5.31261 36.5351 1.77732 -4.55404 -21.1142 0.0 0.0 -0.0 0.0 -0.0 -0.931433 9.36068 5.35066 -24.4148 -0.217172 -3.71209 39.2562 20.2811 5.29823 -8.62067 0.0 0.0 0.0 0.0 0.0 
3424.28211466 708.18 -1515.95711953 -10.4985769699 59.940021164 4.1500929055 3.89521 0.781201 2.17395 3.89761 0.641319 2.21922 3.92116 0.318118 2.28799 3.91449 0.675383 2.2091 -9.54948 16.0011 2.51076 -9.78051 28.415 6.44502 -0.0 0.0 -0.0 -7.2779 23.7254 -7.28041 -22.4747 -13.4587 70.6522 1.61748 -38.7005 0.568058 -51.4964 -4.24815 4.75887 -0.999933 6.12383 -3.9801 -0.0 0.0 -0.0 13.9897 26.0858 -27.9684 4.48782 5.53365 -73.2171 0.657442 18.0393 -0.104361 6.29723 -0.178927 0.784083 -2.8974 -15.3872 11.699 0.0 0.0 0.0 17.9302 9.85925 -6.92559 -38.981 -0.403216 5.85511 32.2278 1.92612 -4.13133 -19.0299 0.0 0.0 -0.0 0.0 -0.0 -1.44888 2.92093 5.18887 -17.0025 -0.319281 -2.5801 37.6325 25.2722 5.38758 -6.90798 0.0 0.0 0.0 0.0 0.0 
3416.27977879 713.499 -1501.90634328 -14.0977795171 65.0223679607 7.57443889532 4.15484 0.383444 2.21734 4.15755 0.241608 2.23724 4.16529 -0.0708002 2.24913 4.15835 0.285205 2.2321 -9.69574 15.2066 1.72114 -9.92906 27.4671 5.50877 -0.0 0.0 -0.0 -7.58439 23.4634 -7.80504 -23.0848 -11.5079 72.4789 1.47253 -36.1066 0.479992 -50.9725 -4.18619 4.7328 -0.54142 5.98162 -1.04254 -0.0 0.0 -0.0 13.7884 26.85 -27.4015 6.07952 6.46425 -73.2131 0.775974 21.0264 -0.144006 5.88389 -0.169836 0.732065 -1.8855 -10.687 7.63109 0.0 0.0 0.0 21.2836 5.84817 -7.32763 -31.3864 -0.0115293 4.75694 29.423 1.57403 -3.83849 -17.7851 0.0 0.0 -0.0 0.0 -0.0 -1.99643 2.15573 5.68636 -14.0873 -0.319207 -2.13288 35.532 23.5054 5.08282 -5.98495 0.0 0.0 0.0 0.0 0.0 
3411.16338915 716.103 -1495.80812166 -17.6681428424 66.8128764053 10.8416861051 4.56181 0.39605 2.37711 4.56492 0.244031 2.39747 4.57283 -0.073477 2.40874 4.56487 0.307749 2.39013 -10.2487 16.4305 3.30237 -10.5422 28.8117 7.50786 -0.0 0.0 -0.0 -7.57586 23.9127 -7.63891 -25.6001 -11.4793 72.4778 1.32662 -33.3101 0.396887 -50.6165 -4.14421 4.71476 -0.255889 5.84577 0.766951 -0.0 0.0 -0.0 13.6872 27.7792 -27.0434 8.63969 7.02148 -74.4253 0.896512 23.946 -0.190122 5.89538 -0.170094 0.73351 -1.33661 -6.95783 5.80928 0.0 0.0 0.0 22.3613 3.92027 -7.50042 -27.8342 0.120908 4.22796 27.8714 0.557844 -3.67503 -17.7414 0.0 0.0 -0.0 0.0 -0.0 -1.86057 -0.377461 6.45336 -10.9488 -0.293701 -1.65205 33.6982 27.5923 5.10272 -4.9331 0.0 0.0 0.0 0.0 0.0 
